<svg width="536" height="536" xmlns="http://www.w3.org/2000/svg" xmlns:xlink="http://www.w3.org/1999/xlink" xml:space="preserve" overflow="hidden"><defs><clipPath id="clip0"><rect x="372" y="92" width="536" height="536"/></clipPath><clipPath id="clip1"><rect x="373" y="92" width="535" height="536"/></clipPath><clipPath id="clip2"><rect x="373" y="92" width="535" height="536"/></clipPath></defs><g clip-path="url(#clip0)" transform="translate(-372 -92)"><g clip-path="url(#clip1)"><g clip-path="url(#clip2)"><path d="M181.556 470.238C179.702 472.325 177.383 471.977 174.6 469.195 171.586 466.644 171.122 464.441 173.209 462.586 175.064 460.5 177.383 460.847 180.165 463.63 182.948 466.18 183.411 468.383 181.556 470.238ZM166.948 449.022C169.035 451.804 169.035 454.007 166.948 455.63 165.094 457.021 163.123 456.21 161.036 453.196 158.949 450.181 158.949 448.094 161.036 446.935 163.123 445.312 165.094 446.008 166.948 449.022ZM145.732 428.153C144.573 429.776 143.066 430.008 141.211 428.849 138.892 427.69 138.08 426.298 138.776 424.675 139.472 423.516 140.979 423.284 143.297 423.98 145.616 425.139 146.428 426.53 145.732 428.153ZM156.514 439.979C155.123 441.602 153.268 441.254 150.949 438.935 148.862 436.385 148.631 434.53 150.254 433.37 151.645 431.979 153.5 432.327 155.819 434.414 157.905 436.964 158.137 438.819 156.514 439.979ZM201.382 478.933C200.454 481.716 198.251 482.412 194.773 481.02 190.831 480.093 189.324 478.354 190.252 475.803 191.179 473.253 193.382 472.441 196.86 473.369 200.57 474.528 202.077 476.383 201.382 478.933ZM223.294 480.673C223.294 483.223 221.439 484.498 217.729 484.498 213.787 484.962 211.816 483.687 211.816 480.673 211.816 478.122 213.671 476.847 217.381 476.847 221.323 476.383 223.294 477.658 223.294 480.673ZM243.467 477.194C243.93 479.513 242.307 481.136 238.597 482.064 234.887 482.991 232.8 482.064 232.337 479.281 231.873 476.499 233.496 474.76 237.206 474.064 240.916 473.6 243.003 474.644 243.467 477.194ZM578.755 144.689 578.755 478.586C578.755 506.179 568.958 529.772 549.365 549.365 529.772 568.958 506.179 578.755 478.586 578.755L400.676 578.755C396.966 578.755 394.126 578.639 392.155 578.407 390.184 578.175 387.923 577.595 385.373 576.668 382.822 575.74 380.967 574.059 379.808 571.625 378.648 569.19 378.069 566.002 378.069 562.06L378.069 478.933C378.069 456.442 372.04 439.979 359.983 429.545 373.199 428.153 385.083 426.066 395.633 423.284 406.183 420.501 417.081 415.98 428.327 409.719 439.573 403.459 448.964 395.749 456.5 386.59 464.036 377.431 470.18 365.258 474.934 350.07 479.687 334.882 482.064 317.434 482.064 297.725 482.064 269.668 472.905 245.785 454.587 226.076 463.166 204.976 462.239 181.325 451.804 155.123 445.312 153.036 435.921 154.311 423.632 158.949 411.342 163.586 400.676 168.688 391.633 174.252L378.417 182.6C356.852 176.571 334.593 173.557 311.637 173.557 288.682 173.557 266.422 176.571 244.858 182.6 241.148 180.049 236.221 176.919 230.076 173.209 223.931 169.499 214.251 165.036 201.034 159.818 187.817 154.601 177.847 153.036 171.122 155.123 160.92 181.325 160.108 204.976 168.688 226.076 150.37 245.785 141.211 269.668 141.211 297.725 141.211 317.434 143.587 334.824 148.341 349.896 153.094 364.968 159.181 377.141 166.601 386.416 174.021 395.691 183.354 403.459 194.599 409.719 205.845 415.98 216.743 420.501 227.293 423.284 237.844 426.066 249.727 428.153 262.944 429.545 253.669 437.892 247.988 449.833 245.901 465.369 241.032 467.688 235.815 469.427 230.25 470.586 224.685 471.745 218.076 472.325 210.425 472.325 202.773 472.325 195.179 469.832 187.643 464.847 180.107 459.862 173.673 452.616 168.34 443.109 163.934 435.689 158.311 429.66 151.471 425.023 144.631 420.386 138.892 417.603 134.254 416.676L127.298 415.632C122.429 415.632 119.067 416.154 117.212 417.197 115.357 418.241 114.777 419.574 115.473 421.197 116.168 422.82 117.212 424.443 118.603 426.066 119.994 427.69 121.501 429.081 123.125 430.24L125.559 431.979C130.66 434.298 135.704 438.704 140.689 445.196 145.674 451.688 149.326 457.601 151.645 462.934L155.123 470.934C158.137 479.745 163.239 486.875 170.427 492.324 177.615 497.773 185.382 501.251 193.73 502.758 202.077 504.266 210.135 505.077 217.903 505.193 225.67 505.309 232.105 504.903 237.206 503.976L245.206 502.585C245.206 511.396 245.264 523.337 245.379 538.409 245.495 553.481 245.553 561.364 245.553 562.06 245.553 567.161 244.278 571.045 241.727 573.711 239.177 576.378 236.626 577.885 234.076 578.233 231.525 578.581 227.699 578.755 222.598 578.755L144.689 578.755C117.096 578.755 93.5027 568.958 73.9095 549.365 54.3162 529.772 44.5196 506.179 44.5196 478.586L44.5196 144.689C44.5196 117.096 54.3162 93.5027 73.9095 73.9095 93.5027 54.3162 117.096 44.5196 144.689 44.5196L478.586 44.5196C506.179 44.5196 529.772 54.3162 549.365 73.9095 568.958 93.5027 578.755 117.096 578.755 144.689Z" fill="#FFFFFF" fill-rule="nonzero" fill-opacity="1" transform="matrix(1 0 0 1.00188 328.486 47.7767)"/></g></g></g></svg>